nColumns=19
nRows=99
DataType=double
version=3
OpenSimVersion=4.1
endheader
time	ground_force_1_vx	ground_force_1_vy	ground_force_1_vz	ground_force_1_px	ground_force_1_py	ground_force_1_pz	ground_force_1_mx	ground_force_1_my	ground_force_1_mz	ground_force_2_vx	ground_force_2_vy	ground_force_2_vz	ground_force_2_px	ground_force_2_py	ground_force_2_pz	ground_force_2_mx	ground_force_2_my	ground_force_2_mz
1.65833	0	0	0	-0.000288212	0	0.000193032	0	0	0	0	0	0	-0.000288212	0	0.000193032	0	0	0
1.66667	0	0	0	-0.000288212	0	0.000193032	0	0	0	-2.32014	13.7464	-1.33313	1.2037	0	-0.266986	-0	2.72876	-0
1.675	0	0	0	-0.000288212	0	0.000193032	0	0	0	-12.1168	37.6613	-1.52608	1.31815	0	-0.373635	-0	2.34551	-0
1.68333	0	0	0	-0.000288212	0	0.000193032	0	0	0	-37.9918	107.582	2.0988	1.33685	0	-0.399873	-0	1.34034	-0
1.69167	0	0	0	-0.000288212	0	0.000193032	0	0	0	-85.2626	250.965	13.3724	1.33401	0	-0.400409	0	-0.071012	0
1.7	0	0	0	-0.000288212	0	0.000193032	0	0	0	-136.629	458.43	32.4658	1.32447	0	-0.395294	0	-1.47157	0
1.70833	0	0	0	-0.000288212	0	0.000193032	0	0	0	-161.241	693.831	51.8804	1.30222	0	-0.389792	0	-2.35732	0
1.71667	0	0	0	-0.000288212	0	0.000193032	0	0	0	-161.969	940.504	60.0918	1.26737	0	-0.385615	0	-2.33542	0
1.725	0	0	0	-0.000288212	0	0.000193032	0	0	0	-170.062	1184.33	52.1149	1.23376	0	-0.382541	0	-1.31288	0
1.73333	0	0	0	-0.000288212	0	0.000193032	0	0	0	-193.902	1401.01	34.0462	1.20848	0	-0.379189	-0	0.44244	-0
1.74167	0	0	0	-0.000288212	0	0.000193032	0	0	0	-213.132	1577.44	15.9753	1.18558	0	-0.375501	-0	2.41417	-0
1.75	0	0	0	-0.000288212	0	0.000193032	0	0	0	-204.703	1711.95	3.88296	1.15872	0	-0.372493	-0	4.05723	-0
1.75833	0	0	0	-0.000288212	0	0.000193032	0	0	0	-166.797	1805.17	-0.956739	1.12843	0	-0.370738	-0	5.00816	-0
1.76667	0	0	0	-0.000288212	0	0.000193032	0	0	0	-115.469	1858.35	0.781007	1.09821	0	-0.369989	-0	5.19978	-0
1.775	0	0	0	-0.000288212	0	0.000193032	0	0	0	-60.9531	1874.22	6.69453	1.06896	0	-0.369359	-0	4.85045	-0
1.78333	0	0	0	-0.000288212	0	0.000193032	0	0	0	-3.68755	1851.88	11.9949	1.03988	0	-0.368372	-0	4.34439	-0
1.79167	0	0	0	-0.000288212	0	0.000193032	0	0	0	55.6745	1786.72	11.9665	1.01062	0	-0.367216	-0	4.05621	-0
1.8	0	0	0	-0.000288212	0	0.000193032	0	0	0	113.394	1677.74	5.78884	0.981598	0	-0.366044	-0	4.19765	-0
1.80833	0	0	0	-0.000288212	0	0.000193032	0	0	0	162.924	1531.35	-3.22301	0.953546	0	-0.364534	-0	4.75172	-0
1.81667	0	0	0	-0.000288212	0	0.000193032	0	0	0	200.449	1356.58	-11.242	0.926615	0	-0.362257	-0	5.50839	-0
1.825	0	0	0	-0.000288212	0	0.000193032	0	0	0	224.41	1160.01	-16.9181	0.900226	0	-0.35936	-0	6.16358	-0
1.83333	0	0	0	-0.000288212	0	0.000193032	0	0	0	232.629	948.622	-20.8311	0.873473	0	-0.356548	-0	6.42766	-0
1.84167	0	0	0	-0.000288212	0	0.000193032	0	0	0	221.427	733.343	-23.2998	0.846277	0	-0.354503	-0	6.10923	-0
1.85	0	0	0	-0.000288212	0	0.000193032	0	0	0	190.449	530.669	-23.7312	0.819857	0	-0.353296	-0	5.16301	-0
1.85833	0	0	0	-0.000288212	0	0.000193032	0	0	0	148.467	358.561	-21.7857	0.795878	0	-0.351747	-0	3.69927	-0
1.86667	0	0	0	-0.000288212	0	0.000193032	0	0	0	106.308	225.53	-18.2596	0.77752	0	-0.348036	-0	1.95407	-0
1.875	0	0	0	-0.000288212	0	0.000193032	0	0	0	69.6494	129.408	-14.4359	0.770987	0	-0.341634	-0	0.227512	-0
1.88333	0	0	0	-0.000288212	0	0.000193032	0	0	0	40.5137	65.6226	-10.903	0.792606	0	-0.332389	0	-1.19138	0
1.89167	0	0	0	-0.000288212	0	0.000193032	0	0	0	19.8597	29.6514	-7.44754	0.886679	0	-0.309368	0	-2.09099	0
1.9	0	0	0	-0.000288212	0	0.000193032	0	0	0	8.60144	14.3421	-4.03925	1.0586	0	-0.231893	0	-2.38087	0
1.90833	0	0	0	-0.000288212	0	0.000193032	0	0	0	0	0	0	-0.000288212	0	0.000193032	0	0	0
1.91667	0	0	0	-0.000288212	0	0.000193032	0	0	0	0	0	0	-0.000288212	0	0.000193032	0	0	0
1.925	0	0	0	-0.000288212	0	0.000193032	0	0	0	0	0	0	-0.000288212	0	0.000193032	0	0	0
1.93333	0	0	0	-0.000288212	0	0.000193032	0	0	0	0	0	0	-0.000288212	0	0.000193032	0	0	0
1.94167	0	0	0	-0.000288212	0	0.000193032	0	0	0	0	0	0	-0.000288212	0	0.000193032	0	0	0
1.95	0	0	0	-0.000288212	0	0.000193032	0	0	0	0	0	0	-0.000288212	0	0.000193032	0	0	0
1.95833	0	0	0	-0.000288212	0	0.000193032	0	0	0	0	0	0	-0.000288212	0	0.000193032	0	0	0
1.96667	0	0	0	-0.000288212	0	0.000193032	0	0	0	0	0	0	-0.000288212	0	0.000193032	0	0	0
1.975	0	0	0	-0.000288212	0	0.000193032	0	0	0	0	0	0	-0.000288212	0	0.000193032	0	0	0
1.98333	0	0	0	-0.000288212	0	0.000193032	0	0	0	0	0	0	-0.000288212	0	0.000193032	0	0	0
1.99167	0	0	0	-0.000288212	0	0.000193032	0	0	0	0	0	0	-0.000288212	0	0.000193032	0	0	0
2	-5.42538	15.8671	-8.71492	1.18984	0	-0.240922	0	-3.90753	0	0	0	0	-0.000288212	0	0.000193032	0	0	0
2.00833	-20.8434	47.5982	-18.5557	1.32592	0	-0.294147	0	-2.1321	0	0	0	0	-0.000288212	0	0.000193032	0	0	0
2.01667	-60.2401	131.113	-32.0349	1.36278	0	-0.30263	-0	0.327607	-0	0	0	0	-0.000288212	0	0.000193032	0	0	0
2.025	-125.022	283.256	-46.8745	1.37418	0	-0.304861	-0	2.88925	-0	0	0	0	-0.000288212	0	0.000193032	0	0	0
2.03333	-181.134	482.012	-59.215	1.36925	0	-0.307628	-0	4.82753	-0	0	0	0	-0.000288212	0	0.000193032	0	0	0
2.04167	-190.736	697.653	-64.5906	1.34202	0	-0.312121	-0	5.49376	-0	0	0	0	-0.000288212	0	0.000193032	0	0	0
2.05	-176.597	922.932	-58.7063	1.30145	0	-0.317973	-0	4.5487	-0	0	0	0	-0.000288212	0	0.000193032	0	0	0
2.05833	-185.993	1140.17	-38.7617	1.26755	0	-0.323617	-0	2.11955	-0	0	0	0	-0.000288212	0	0.000193032	0	0	0
2.06667	-222.47	1325.94	-7.58467	1.2451	0	-0.327896	0	-1.19757	0	0	0	0	-0.000288212	0	0.000193032	0	0	0
2.075	-255.531	1474.3	23.9423	1.22545	0	-0.330892	0	-4.5225	0	0	0	0	-0.000288212	0	0.000193032	0	0	0
2.08333	-255.825	1593.24	43.0853	1.20062	0	-0.33293	0	-7.0079	0	0	0	0	-0.000288212	0	0.000193032	0	0	0
2.09167	-223.508	1685.73	45.757	1.17168	0	-0.334448	0	-8.14337	0	0	0	0	-0.000288212	0	0.000193032	0	0	0
2.1	-177.23	1748.57	39.1196	1.14303	0	-0.335379	0	-7.8956	0	0	0	0	-0.000288212	0	0.000193032	0	0	0
2.10833	-125.375	1781.41	32.8844	1.11486	0	-0.33524	0	-6.63654	0	0	0	0	-0.000288212	0	0.000193032	0	0	0
2.11667	-65.6283	1782.98	30.0999	1.08501	0	-0.334454	0	-4.93901	0	0	0	0	-0.000288212	0	0.000193032	0	0	0
2.125	1.38418	1748.58	27.9857	1.05332	0	-0.334066	0	-3.364	0	0	0	0	-0.000288212	0	0.000193032	0	0	0
2.13333	67.3517	1675.32	25.0769	1.02198	0	-0.334463	0	-2.31302	0	0	0	0	-0.000288212	0	0.000193032	0	0	0
2.14167	124.114	1566.5	23.7201	0.9923	0	-0.335055	0	-1.95471	0	0	0	0	-0.000288212	0	0.000193032	0	0	0
2.15	171.535	1427.59	25.6482	0.96338	0	-0.335122	0	-2.21722	0	0	0	0	-0.000288212	0	0.000193032	0	0	0
2.15833	208.44	1261.34	28.4115	0.934812	0	-0.334827	0	-2.84632	0	0	0	0	-0.000288212	0	0.000193032	0	0	0
2.16667	229.736	1071.37	28.0568	0.907073	0	-0.334874	0	-3.51497	0	0	0	0	-0.000288212	0	0.000193032	0	0	0
2.175	230.092	867.119	23.7599	0.880748	0	-0.33535	0	-3.93945	0	0	0	0	-0.000288212	0	0.000193032	0	0	0
2.18333	209.721	665.079	18.052	0.855709	0	-0.335481	0	-3.95218	0	0	0	0	-0.000288212	0	0.000193032	0	0	0
2.19167	175.606	481.983	13.2882	0.830732	0	-0.334338	0	-3.51626	0	0	0	0	-0.000288212	0	0.000193032	0	0	0
2.2	136.936	327.098	9.51776	0.805231	0	-0.331692	0	-2.70276	0	0	0	0	-0.000288212	0	0.000193032	0	0	0
2.20833	100.334	203.904	5.77214	0.781273	0	-0.32759	0	-1.65721	0	0	0	0	-0.000288212	0	0.000193032	0	0	0
2.21667	66.8542	113.734	2.11518	0.767169	0	-0.321867	0	-0.564097	0	0	0	0	-0.000288212	0	0.000193032	0	0	0
2.225	38.0765	55.6789	-0.315485	0.779168	0	-0.31086	-0	0.392422	-0	0	0	0	-0.000288212	0	0.000193032	0	0	0
2.23333	17.901	25.0214	-0.89618	0.848052	0	-0.273059	-0	1.06726	-0	0	0	0	-0.000288212	0	0.000193032	0	0	0
2.24167	7.04005	12.6297	-0.415711	1.00396	0	-0.175272	-0	1.38034	-0	0	0	0	-0.000288212	0	0.000193032	0	0	0
2.25	0	0	0	-0.000288212	0	0.000193032	0	0	0	0	0	0	-0.000288212	0	0.000193032	0	0	0
2.25833	0	0	0	-0.000288212	0	0.000193032	0	0	0	0	0	0	-0.000288212	0	0.000193032	0	0	0
2.26667	0	0	0	-0.000288212	0	0.000193032	0	0	0	0	0	0	-0.000288212	0	0.000193032	0	0	0
2.275	0	0	0	-0.000288212	0	0.000193032	0	0	0	0	0	0	-0.000288212	0	0.000193032	0	0	0
2.28333	0	0	0	-0.000288212	0	0.000193032	0	0	0	0	0	0	-0.000288212	0	0.000193032	0	0	0
2.29167	0	0	0	-0.000288212	0	0.000193032	0	0	0	0	0	0	-0.000288212	0	0.000193032	0	0	0
2.3	0	0	0	-0.000288212	0	0.000193032	0	0	0	0	0	0	-0.000288212	0	0.000193032	0	0	0
2.30833	0	0	0	-0.000288212	0	0.000193032	0	0	0	0	0	0	-0.000288212	0	0.000193032	0	0	0
2.31667	0	0	0	-0.000288212	0	0.000193032	0	0	0	0	0	0	-0.000288212	0	0.000193032	0	0	0
2.325	0	0	0	-0.000288212	0	0.000193032	0	0	0	0	0	0	-0.000288212	0	0.000193032	0	0	0
2.33333	0	0	0	-0.000288212	0	0.000193032	0	0	0	0	0	0	-0.000288212	0	0.000193032	0	0	0
2.34167	0	0	0	-0.000288212	0	0.000193032	0	0	0	-1.85119	10.9965	-1.03594	1.17799	0	-0.232377	-0	3.05519	-0
2.35	0	0	0	-0.000288212	0	0.000193032	0	0	0	-9.01709	29.695	-0.842784	1.29246	0	-0.377959	-0	2.88168	-0
2.35833	0	0	0	-0.000288212	0	0.000193032	0	0	0	-29.1974	87.4182	3.25226	1.33089	0	-0.414569	-0	1.94985	-0
2.36667	0	0	0	-0.000288212	0	0.000193032	0	0	0	-69.7211	212.06	14.6157	1.33956	0	-0.418594	-0	0.426414	-0
2.375	0	0	0	-0.000288212	0	0.000193032	0	0	0	-119.173	405.02	34.4381	1.33607	0	-0.413338	0	-1.26274	0
2.38333	0	0	0	-0.000288212	0	0.000193032	0	0	0	-148.59	633.007	57.105	1.31725	0	-0.406338	0	-2.53246	0
2.39167	0	0	0	-0.000288212	0	0.000193032	0	0	0	-153.073	870.395	71.0151	1.28245	0	-0.401141	0	-2.84481	0
2.4	0	0	0	-0.000288212	0	0.000193032	0	0	0	-161.821	1105.61	68.4112	1.24585	0	-0.398399	0	-1.94172	0
2.40833	0	0	0	-0.000288212	0	0.000193032	0	0	0	-187.927	1322.69	53.2276	1.21817	0	-0.396122	-0	0.025573	-0
2.41667	0	0	0	-0.000288212	0	0.000193032	0	0	0	-211.868	1510.02	36.2772	1.19457	0	-0.392992	-0	2.55292	-0
2.425	0	0	0	-0.000288212	0	0.000193032	0	0	0	-207.918	1660.95	24.9922	1.16745	0	-0.389892	-0	4.99099	-0
2.43333	0	0	0	-0.000288212	0	0.000193032	0	0	0	-171.017	1770.49	20.4533	1.13651	0	-0.388007	-0	6.78824	-0
2.44167	0	0	0	-0.000288212	0	0.000193032	0	0	0	-118.956	1836.76	21.4955	1.10635	0	-0.38755	-0	7.66418	-0
2.45	0	0	0	-0.000288212	0	0.000193032	0	0	0	-66.5437	1862.44	27.0654	1.07866	0	-0.387383	-0	7.66527	-0
2.45833	0	0	0	-0.000288212	0	0.000193032	0	0	0	-13.086	1848.4	34.1341	1.05127	0	-0.386548	-0	7.10108	-0
2.46667	0	0	0	-0.000288212	0	0.000193032	0	0	0	44.8384	1791.1	37.1555	1.02233	0	-0.385353	-0	6.39003	-0
2.475	0	0	0	-0.000288212	0	0.000193032	0	0	0	105.164	1689.36	32.5055	0.992127	0	-0.384387	-0	5.87917	-0
